<?xml version="1.0" encoding="UTF-8" standalone="no"?>
<svg
   height="100"
   width="429.21707"
   fill="#000000"
   version="1.1"
   x="0px"
   y="0px"
   viewBox="0 0 407.75622 95"
   enable-background="new 0 0 95 95"
   xml:space="preserve"
   id="svg4"
   xmlns="http://www.w3.org/2000/svg"
   xmlns:svg="http://www.w3.org/2000/svg"
   xmlns:rdf="http://www.w3.org/1999/02/22-rdf-syntax-ns#"
   xmlns:cc="http://creativecommons.org/ns#"
   xmlns:dc="http://purl.org/dc/elements/1.1/"><metadata
     id="metadata10"><rdf:RDF><cc:Work
         rdf:about=""><dc:format>image/svg+xml</dc:format><dc:type
           rdf:resource="http://purl.org/dc/dcmitype/StillImage" /></cc:Work></rdf:RDF></metadata><defs
     id="defs8" /><path
     d="M 94.817088,19.37409 C 94.817088,8.673974 86.143118,0 75.443003,0 64.796234,0 56.162541,8.59123 56.077621,19.217312 L 40.446612,21.307689 C 38.485796,15.301122 32.84831,10.958145 26.1885,10.958145 c -8.284207,0 -15.00172,6.716424 -15.00172,15.001721 0,6.64239 4.321202,12.266808 10.302727,14.239602 L 19.284813,56.255087 C 8.624981,56.304077 0,64.955192 0,75.624823 0,86.324936 8.673973,95 19.374088,95 30.051341,95 38.70572,86.361955 38.743824,75.695589 l 18.092647,-2.50083 c 1.979326,5.971729 7.598302,10.285306 14.234162,10.285306 8.284204,0 15.001715,-6.716424 15.001715,-15.001719 0,-6.890622 -4.65218,-12.681619 -10.983188,-14.441019 L 76.45444,38.698099 C 86.683128,38.167884 94.817088,29.73234 94.817088,19.37409 Z M 56.102663,67.800063 37.987152,70.305248 C 36.153718,63.882785 31.099797,58.833215 24.675155,57.005226 L 26.879849,40.927833 C 34.59247,40.573995 40.772143,34.411738 41.149936,26.705649 l 15.654962,-2.093642 c 1.894404,6.756707 7.351157,12.008781 14.22545,13.612489 l -1.365279,15.321809 c -7.400151,0.688083 -13.223811,6.753442 -13.562406,14.253758 z"
     id="path2"
     style="fill:#0482d8;fill-opacity:1;stroke-width:1.08874" /><path
     style="font-weight:600;font-size:69.4602px;font-family:Inter;-inkscape-font-specification:'Inter Semi-Bold';fill:#1b1a1f;stroke-width:5.20949;stroke-linecap:round"
     d="m 148.07482,34.127366 q -0.34533,-3.23128 -2.91062,-5.031917 -2.54063,-1.800638 -6.61056,-1.800638 -2.86129,0 -4.90859,0.86332 -2.0473,0.863319 -3.13261,2.343295 -1.08532,1.479975 -1.10999,3.379278 0,1.57864 0.71533,2.737955 0.73998,1.159314 1.99796,1.973301 1.25798,0.78932 2.78729,1.331978 1.52931,0.542658 3.08328,0.912652 l 4.73593,1.183981 q 2.86128,0.665989 5.50057,1.800637 2.66396,1.134648 4.76059,2.861286 2.1213,1.726639 3.35461,4.168599 1.23332,2.44196 1.23332,5.722573 0,4.439927 -2.2693,7.819205 -2.2693,3.354612 -6.56123,5.253914 -4.26726,1.874636 -10.33516,1.874636 -5.89524,0 -10.2365,-1.825303 -4.31659,-1.825304 -6.75855,-5.327913 -2.4173,-3.502609 -2.61463,-8.534527 h 9.00319 q 0.19733,2.63929 1.62797,4.390595 1.43064,1.751305 3.72461,2.614624 2.31863,0.863319 5.17991,0.863319 2.98462,0 5.22925,-0.887986 2.2693,-0.912651 3.55194,-2.515958 1.28265,-1.627974 1.30731,-3.798605 -0.0247,-1.973301 -1.15931,-3.255947 -1.13465,-1.307312 -3.18195,-2.170631 -2.02263,-0.887985 -4.73592,-1.578641 l -5.74724,-1.479975 q -6.24057,-1.603308 -9.86651,-4.859254 -3.60127,-3.280613 -3.60127,-8.707191 0,-4.464594 2.41729,-7.819206 2.44196,-3.354612 6.63523,-5.204581 4.19326,-1.874636 9.49651,-1.874636 5.37724,0 9.42251,1.874636 4.06994,1.849969 6.38856,5.155249 2.31863,3.280613 2.39263,7.547876 z m 33.76806,37.369389 q -5.54991,0 -9.61984,-2.44196 -4.06993,-2.44196 -6.31456,-6.832555 -2.21997,-4.390595 -2.21997,-10.261165 0,-5.870571 2.21997,-10.285832 2.24463,-4.415261 6.31456,-6.857221 4.06993,-2.44196 9.61984,-2.44196 5.54991,0 9.61985,2.44196 4.06993,2.44196 6.28989,6.857221 2.24463,4.415261 2.24463,10.285832 0,5.87057 -2.24463,10.261165 -2.21996,4.390595 -6.28989,6.832555 -4.06994,2.44196 -9.61985,2.44196 z m 0.0493,-7.153216 q 3.00928,0 5.03191,-1.65264 2.02264,-1.677306 3.00929,-4.48926 1.01131,-2.811954 1.01131,-6.265231 0,-3.477943 -1.01131,-6.289897 -0.98665,-2.83662 -3.00929,-4.513926 -2.02263,-1.677306 -5.03191,-1.677306 -3.08329,0 -5.13059,1.677306 -2.02263,1.677306 -3.03395,4.513926 -0.98665,2.811954 -0.98665,6.289897 0,3.453277 0.98665,6.265231 1.01132,2.811954 3.03395,4.48926 2.0473,1.65264 5.13059,1.65264 z m 36.55536,7.177882 q -3.60127,0 -6.48723,-1.282645 -2.86128,-1.307312 -4.53859,-3.847937 -1.65264,-2.540625 -1.65264,-6.265231 0,-3.206614 1.18398,-5.303247 1.18398,-2.096632 3.23128,-3.354612 2.0473,-1.257979 4.61259,-1.899302 2.58996,-0.665989 5.35258,-0.961984 3.32995,-0.345328 5.40192,-0.616657 2.07196,-0.295995 3.00928,-0.887985 0.96198,-0.616657 0.96198,-1.899303 v -0.147997 q 0,-2.787288 -1.65264,-4.316596 -1.65264,-1.529308 -4.76058,-1.529308 -3.28062,0 -5.20459,1.430643 -1.8993,1.430643 -2.56529,3.379278 l -8.33719,-1.183981 q 0.98665,-3.453277 3.25594,-5.771905 2.2693,-2.343295 5.54991,-3.50261 3.28061,-1.18398 7.25188,-1.18398 2.73796,0 5.45125,0.641322 2.71329,0.641323 4.95792,2.121299 2.24463,1.45531 3.60127,3.971268 1.38131,2.515959 1.38131,6.289898 v 25.356918 h -8.58386 v -5.204581 h -0.29599 q -0.81399,1.578641 -2.29397,2.959951 -1.45531,1.356645 -3.67527,2.195298 -2.1953,0.813986 -5.15525,0.813986 z m 2.31863,-6.561226 q 2.68862,0 4.66192,-1.060649 1.97331,-1.085316 3.03395,-2.861286 1.08532,-1.775971 1.08532,-3.872604 v -4.464593 q -0.41933,0.345327 -1.43064,0.641322 -0.98665,0.295996 -2.21997,0.517992 -1.23331,0.221996 -2.44196,0.39466 -1.20864,0.172664 -2.09663,0.295995 -1.99797,0.271329 -3.57661,0.887986 -1.57864,0.616656 -2.49129,1.726638 -0.91265,1.085316 -0.91265,2.811954 0,2.466627 1.80064,3.724606 1.80063,1.257979 4.58792,1.257979 z m 26.68887,20.00434 V 32.869387 h 8.78119 v 6.265231 h 0.51799 q 0.69066,-1.381311 1.94864,-2.935286 1.25798,-1.57864 3.40394,-2.688622 2.14597,-1.134648 5.47591,-1.134648 4.3906,0 7.91787,2.24463 3.55195,2.219963 5.62391,6.585892 2.09663,4.341262 2.09663,10.655826 0,6.240564 -2.0473,10.606493 -2.0473,4.365928 -5.57457,6.659891 -3.52728,2.293962 -7.99187,2.293962 -3.25595,0 -5.40191,-1.085315 -2.14597,-1.085316 -3.45328,-2.614624 -1.28265,-1.553975 -1.99797,-2.935285 h -0.36999 v 20.177003 z m 8.75653,-33.151458 q 0,3.675273 1.03598,6.437895 1.06065,2.762621 3.03395,4.316596 1.99797,1.529308 4.83459,1.529308 2.95995,0 4.95792,-1.578641 1.99796,-1.603307 3.00928,-4.365928 1.03598,-2.787288 1.03598,-6.33923 0,-3.527276 -1.01131,-6.265231 -1.01132,-2.737955 -3.00929,-4.29193 -1.99797,-1.553974 -4.98258,-1.553974 -2.86129,0 -4.85926,1.504642 -1.99796,1.504642 -3.03395,4.217931 -1.01131,2.713289 -1.01131,6.388562 z m 35.02611,18.94369 V 20.24026 h 8.92919 v 18.894358 h 0.36999 q 0.69066,-1.381311 1.94864,-2.935286 1.25798,-1.57864 3.40394,-2.688622 2.14597,-1.134648 5.47591,-1.134648 4.3906,0 7.91787,2.24463 3.55194,2.219963 5.62391,6.585892 2.09663,4.341262 2.09663,10.655826 0,6.240564 -2.0473,10.606493 -2.0473,4.365928 -5.57457,6.659891 -3.52728,2.293962 -7.99187,2.293962 -3.25595,0 -5.40191,-1.085315 -2.14597,-1.085316 -3.45328,-2.614624 -1.28265,-1.553975 -1.99797,-2.935285 h -0.51799 v 5.969235 z m 8.75652,-18.94369 q 0,3.675273 1.03599,6.437895 1.06065,2.762621 3.03395,4.316596 1.99796,1.529308 4.83458,1.529308 2.95996,0 4.95792,-1.578641 1.99797,-1.603307 3.00929,-4.365928 1.03598,-2.787288 1.03598,-6.33923 0,-3.527276 -1.01132,-6.265231 -1.01131,-2.737955 -3.00928,-4.29193 -1.99797,-1.553974 -4.98259,-1.553974 -2.86128,0 -4.85925,1.504642 -1.99797,1.504642 -3.03395,4.217931 -1.01132,2.713289 -1.01132,6.388562 z m 51.15787,19.683678 q -5.54991,0 -9.61984,-2.44196 -4.06994,-2.44196 -6.31457,-6.832555 -2.21996,-4.390595 -2.21996,-10.261165 0,-5.870571 2.21996,-10.285832 2.24463,-4.415261 6.31457,-6.857221 4.06993,-2.44196 9.61984,-2.44196 5.54991,0 9.61984,2.44196 4.06994,2.44196 6.2899,6.857221 2.24463,4.415261 2.24463,10.285832 0,5.87057 -2.24463,10.261165 -2.21996,4.390595 -6.2899,6.832555 -4.06993,2.44196 -9.61984,2.44196 z m 0.0493,-7.153216 q 3.00929,0 5.03192,-1.65264 2.02263,-1.677306 3.00928,-4.48926 1.01132,-2.811954 1.01132,-6.265231 0,-3.477943 -1.01132,-6.289897 -0.98665,-2.83662 -3.00928,-4.513926 -2.02263,-1.677306 -5.03192,-1.677306 -3.08328,0 -5.13058,1.677306 -2.02263,1.677306 -3.03395,4.513926 -0.98665,2.811954 -0.98665,6.289897 0,3.453277 0.98665,6.265231 1.01132,2.811954 3.03395,4.48926 2.0473,1.65264 5.13058,1.65264 z m 31.49386,-31.474152 7.64654,13.985771 7.76987,-13.985771 h 9.44718 l -11.42048,18.94369 11.61781,18.94369 h -9.39784 l -8.01654,-13.640443 -7.94254,13.640443 h -9.47184 l 11.54381,-18.94369 -11.24782,-18.94369 z"
     id="text1"
     aria-label="Soapbox" /></svg>
